<svg width="628" height="755" viewBox="0 0 628 755" fill="none" xmlns="http://www.w3.org/2000/svg">
<rect width="628" height="755" fill="transparent"/>
<rect x="513.669" y="23.9082" width="39.8999" height="492.569" transform="rotate(31.7711 513.669 23.9082)" fill="#027DCF"/>
<rect x="627.301" y="567.459" width="37.945" height="512.418" transform="rotate(154.003 627.301 567.459)" fill="#027DCF"/>
<rect x="302.1" y="330.754" width="34.1468" height="278.686" transform="rotate(-89.6629 302.1 330.754)" fill="#027DCF"/>
<path d="M503.231 102.914C442.182 52.774 318.56 52.0424 218.568 172.553" stroke="#027DCF" stroke-width="8"/>
<path d="M503.868 82.9068C485.5 58.9999 325.113 1.30253 203.864 158.423" stroke="#027DCF" stroke-width="8"/>
<path d="M181.46 178.878L185.763 171.853L210.58 200.942L205.405 209.39L167.483 201.695L171.786 194.67L200.749 201.086L200.897 200.844L181.46 178.878ZM194.061 185.665L183.896 202.26L178.718 199.225L188.883 182.631L194.061 185.665Z" fill="#027DCF"/>
<path d="M171.2 251.72L174.198 244.544C175.191 244.777 176.137 244.832 177.034 244.71C177.942 244.593 178.788 244.318 179.572 243.885C180.355 243.453 181.058 242.875 181.681 242.152C182.299 241.44 182.809 240.603 183.211 239.642C183.936 237.905 184.133 236.224 183.799 234.597C183.477 232.975 182.636 231.488 181.277 230.136C179.929 228.789 178.08 227.659 175.729 226.748C173.312 225.811 171.133 225.379 169.192 225.452C167.246 225.535 165.584 226.059 164.207 227.023C162.83 227.986 161.787 229.314 161.08 231.007C160.683 231.958 160.442 232.886 160.358 233.793C160.27 234.71 160.336 235.58 160.557 236.401C160.789 237.227 161.171 237.985 161.704 238.674C162.233 239.373 162.915 239.98 163.752 240.495L160.72 247.658C159.242 246.869 157.934 245.823 156.799 244.52C155.67 243.232 154.797 241.745 154.181 240.06C153.571 238.389 153.293 236.568 153.347 234.597C153.408 232.641 153.888 230.587 154.787 228.435C156.037 225.442 157.84 223.032 160.194 221.203C162.544 219.385 165.301 218.297 168.466 217.937C171.625 217.588 175.048 218.127 178.735 219.556C182.432 220.989 185.29 222.897 187.309 225.278C189.327 227.659 190.523 230.293 190.894 233.178C191.277 236.068 190.852 238.987 189.62 241.936C188.808 243.88 187.779 245.575 186.533 247.021C185.283 248.478 183.859 249.646 182.261 250.524C180.674 251.407 178.95 251.957 177.089 252.175C175.223 252.403 173.26 252.252 171.2 251.72Z" fill="#027DCF"/>
<path d="M174.623 261.67L180.812 263.042L173.479 291.993L167.291 290.621L170.024 279.829L140.711 273.331L142.576 265.965L171.89 272.462L174.623 261.67Z" fill="#027DCF"/>
<path d="M171.177 308.537L135.032 304.55L136.112 296.938L172.257 300.926L171.177 308.537Z" fill="#027DCF"/>
<path d="M169.468 324.598L141.614 333.52L141.606 333.857L169.006 342.525L168.787 351.045L132.746 338.692L133.001 328.788L169.688 316.06L169.468 324.598Z" fill="#027DCF"/>
<path d="M133.457 363.61L169.424 358.257L172.353 382.584L166.084 383.517L164.074 366.823L155.503 368.098L157.363 383.541L151.093 384.474L149.234 369.032L140.646 370.31L142.664 387.074L136.394 388.007L133.457 363.61Z" fill="#027DCF"/>
<path d="M175.685 440.766L173.165 433.409C174.064 432.929 174.809 432.348 175.401 431.666C176.004 430.98 176.456 430.216 176.756 429.376C177.056 428.536 177.199 427.639 177.185 426.686C177.176 425.745 177.002 424.782 176.664 423.796C176.054 422.016 175.084 420.625 173.753 419.625C172.433 418.62 170.814 418.058 168.897 417.939C166.991 417.817 164.854 418.188 162.485 419.052C160.05 419.942 158.129 421.053 156.722 422.386C155.318 423.73 154.42 425.217 154.028 426.847C153.636 428.477 153.737 430.16 154.331 431.895C154.665 432.87 155.102 433.724 155.642 434.46C156.185 435.206 156.813 435.815 157.524 436.286C158.247 436.752 159.037 437.069 159.895 437.234C160.756 437.411 161.671 437.417 162.641 437.252L165.128 444.621C163.495 445.003 161.82 445.08 160.102 444.85C158.4 444.628 156.757 444.087 155.175 443.229C153.607 442.378 152.188 441.195 150.919 439.681C149.664 438.173 148.659 436.317 147.903 434.111C146.852 431.042 146.602 428.047 147.152 425.125C147.705 422.214 149.049 419.581 151.182 417.227C153.32 414.884 156.245 413.035 159.959 411.679C163.684 410.318 167.094 409.866 170.191 410.323C173.287 410.78 175.933 411.968 178.13 413.887C180.337 415.803 181.959 418.272 182.995 421.296C183.677 423.289 184.033 425.238 184.06 427.143C184.091 429.059 183.799 430.873 183.184 432.584C182.581 434.292 181.654 435.84 180.403 437.229C179.157 438.629 177.584 439.808 175.685 440.766Z" fill="#027DCF"/>
<path d="M190.431 481.352C186.964 483.276 183.657 484.251 180.51 484.278C177.369 484.316 174.544 483.555 172.035 481.997C169.541 480.443 167.533 478.255 166.009 475.432C164.473 472.588 163.737 469.68 163.8 466.708C163.863 463.736 164.757 460.918 166.48 458.256C168.204 455.594 170.795 453.304 174.252 451.385C177.719 449.461 181.023 448.481 184.164 448.443C187.305 448.406 190.122 449.164 192.616 450.718C195.119 452.266 197.139 454.462 198.674 457.305C200.198 460.128 200.929 463.026 200.866 465.998C200.819 468.975 199.933 471.795 198.209 474.457C196.491 477.129 193.899 479.428 190.431 481.352ZM186.728 474.493C188.974 473.247 190.685 471.857 191.862 470.324C193.044 468.802 193.705 467.21 193.844 465.549C193.983 463.888 193.611 462.24 192.728 460.605C191.845 458.97 190.676 457.764 189.221 456.987C187.766 456.211 186.085 455.912 184.177 456.091C182.275 456.28 180.201 456.998 177.955 458.244C175.709 459.491 173.995 460.875 172.812 462.397C171.636 463.93 170.978 465.527 170.839 467.188C170.7 468.849 171.072 470.497 171.955 472.132C172.838 473.768 174.007 474.973 175.462 475.75C176.917 476.526 178.595 476.82 180.497 476.631C182.405 476.452 184.482 475.739 186.728 474.493Z" fill="#027DCF"/>
<path d="M229.308 503.243L200.598 525.56L196.533 520.309L204.918 493.753L204.755 493.543L186.685 507.589L181.978 501.51L210.689 479.193L214.819 484.528L206.372 510.974L206.567 511.227L224.624 497.192L229.308 503.243Z" fill="#027DCF"/>
<path d="M241.864 530.442C242.757 529.314 243.089 528.093 242.86 526.78C242.632 525.467 241.849 524.173 240.512 522.899C239.604 522.034 238.714 521.43 237.841 521.09C236.977 520.74 236.164 520.628 235.402 520.752C234.649 520.884 234 521.231 233.457 521.793C232.988 522.245 232.691 522.747 232.568 523.3C232.454 523.861 232.466 524.453 232.605 525.076C232.752 525.69 232.988 526.332 233.312 527.001C233.645 527.662 234.037 528.329 234.488 529.004L236.31 531.82C237.211 533.169 237.936 534.514 238.485 535.854C239.033 537.195 239.358 538.51 239.461 539.801C239.563 541.092 239.399 542.342 238.97 543.553C238.55 544.771 237.818 545.929 236.773 547.026C235.218 548.618 233.466 549.614 231.517 550.012C229.584 550.411 227.542 550.207 225.392 549.4C223.258 548.593 221.12 547.168 218.978 545.127C216.853 543.102 215.314 541.014 214.363 538.865C213.42 536.724 213.12 534.599 213.463 532.489C213.823 530.38 214.891 528.364 216.666 526.442L222.052 531.575C221.264 532.508 220.81 533.481 220.688 534.493C220.582 535.505 220.763 536.519 221.229 537.535C221.712 538.551 222.433 539.517 223.393 540.431C224.336 541.33 225.286 541.973 226.243 542.362C227.209 542.76 228.119 542.9 228.974 542.782C229.828 542.664 230.56 542.29 231.169 541.661C231.736 541.073 232.038 540.412 232.073 539.677C232.117 538.951 231.94 538.129 231.544 537.211C231.155 536.301 230.592 535.274 229.855 534.13L227.679 530.683C225.978 528.032 225.036 525.524 224.853 523.158C224.67 520.793 225.516 518.648 227.392 516.724C228.914 515.133 230.675 514.154 232.676 513.788C234.685 513.43 236.764 513.637 238.914 514.411C241.064 515.184 243.098 516.485 245.018 518.314C246.972 520.176 248.356 522.133 249.171 524.185C249.995 526.246 250.242 528.255 249.913 530.214C249.583 532.173 248.679 533.943 247.199 535.525L241.864 530.442Z" fill="#027DCF"/>
<path d="M255.406 537.232L259.149 532.117L283.515 549.387L279.771 554.502L270.688 548.064L252.955 572.293L246.755 567.898L264.488 543.67L255.406 537.232Z" fill="#027DCF"/>
<path d="M272.504 585.194L289.767 553.189L302.542 559.718C304.987 560.968 306.841 562.467 308.103 564.215C309.381 565.959 310.049 567.848 310.107 569.885C310.181 571.916 309.648 573.99 308.507 576.104C307.361 578.23 305.911 579.821 304.157 580.879C302.409 581.926 300.436 582.405 298.238 582.318C296.05 582.237 293.712 581.56 291.224 580.289L282.671 575.917L285.604 570.479L293.051 574.285C294.358 574.953 295.539 575.331 296.594 575.418C297.65 575.506 298.579 575.303 299.383 574.81C300.197 574.323 300.888 573.553 301.456 572.5C302.029 571.438 302.296 570.431 302.257 569.481C302.229 568.536 301.879 567.653 301.206 566.831C300.55 566.003 299.563 565.253 298.245 564.58L293.629 562.22L279.35 588.693L272.504 585.194ZM297.846 579.567L298.038 598.245L290.48 594.382L290.463 575.793L297.846 579.567Z" fill="#027DCF"/>
<path d="M342.093 575.843L349.382 578.289L341.256 600.462C340.344 602.952 338.945 604.929 337.06 606.393C335.186 607.861 332.986 608.758 330.46 609.083C327.938 609.397 325.251 609.076 322.401 608.12C319.539 607.16 317.226 605.803 315.462 604.05C313.701 602.286 312.568 600.271 312.063 598.005C311.557 595.738 311.761 593.36 312.673 590.871L320.799 568.697L328.088 571.143L320.188 592.7C319.712 594 319.574 595.252 319.776 596.455C319.989 597.663 320.517 598.732 321.36 599.664C322.203 600.596 323.326 601.297 324.729 601.768C326.143 602.243 327.477 602.366 328.733 602.138C329.999 601.914 331.104 601.393 332.047 600.573C333.001 599.758 333.717 598.7 334.193 597.399L342.093 575.843Z" fill="#027DCF"/>
<path d="M386.753 598.425L379.084 597.132C379.142 596.122 379.031 595.197 378.753 594.359C378.477 593.508 378.055 592.753 377.487 592.093C376.919 591.434 376.221 590.884 375.392 590.444C374.575 590.007 373.652 589.701 372.625 589.528C370.769 589.215 369.061 589.401 367.5 590.085C365.941 590.759 364.608 591.902 363.501 593.515C362.396 595.116 361.596 597.153 361.1 599.625C360.591 602.167 360.543 604.367 360.955 606.224C361.379 608.083 362.192 609.57 363.392 610.684C364.593 611.799 366.098 612.508 367.907 612.813C368.923 612.985 369.889 613.01 370.806 612.888C371.735 612.769 372.589 612.511 373.369 612.115C374.15 611.706 374.837 611.168 375.429 610.5C376.033 609.834 376.518 609.04 376.884 608.118L384.546 609.446C384.02 611.049 383.207 612.544 382.109 613.93C381.025 615.307 379.698 616.481 378.128 617.452C376.572 618.414 374.807 619.088 372.835 619.476C370.877 619.854 368.749 619.849 366.449 619.461C363.251 618.922 360.535 617.72 358.302 615.855C356.081 613.993 354.514 611.575 353.601 608.602C352.7 605.63 352.638 602.206 353.414 598.329C354.193 594.441 355.591 591.257 357.608 588.778C359.625 586.298 362.037 584.557 364.844 583.554C367.653 582.54 370.634 582.299 373.785 582.83C375.863 583.181 377.731 583.796 379.389 584.675C381.059 585.556 382.471 586.67 383.625 588.017C384.781 589.352 385.631 590.893 386.174 592.64C386.729 594.39 386.922 596.318 386.753 598.425Z" fill="#027DCF"/>
<path d="M395.552 592.98L395.857 586.649L425.717 587.164L425.412 593.496L414.281 593.304L412.837 623.294L405.239 623.163L406.683 593.172L395.552 592.98Z" fill="#027DCF"/>
<path d="M442.306 585.704L444.499 622.002L436.841 622.69L434.648 586.393L442.306 585.704Z" fill="#027DCF"/>
<path d="M487.828 596.23C488.541 600.131 488.411 603.604 487.44 606.649C486.48 609.692 484.869 612.2 482.607 614.173C480.354 616.133 477.658 617.442 474.519 618.1C471.356 618.763 468.386 618.637 465.608 617.72C462.831 616.803 460.462 615.13 458.503 612.699C456.543 610.269 455.208 607.109 454.498 603.22C453.785 599.319 453.909 595.847 454.869 592.804C455.829 589.762 457.435 587.261 459.688 585.301C461.938 583.33 464.645 582.013 467.807 581.35C470.947 580.692 473.906 580.821 476.683 581.737C479.47 582.64 481.844 584.307 483.803 586.737C485.774 589.165 487.116 592.329 487.828 596.23ZM480.2 597.83C479.738 595.303 478.972 593.251 477.902 591.674C476.844 590.095 475.555 588.999 474.036 588.386C472.517 587.774 470.848 587.658 469.029 588.04C467.21 588.421 465.705 589.202 464.513 590.383C463.321 591.564 462.508 593.101 462.071 594.994C461.647 596.884 461.665 599.093 462.127 601.62C462.588 604.147 463.348 606.2 464.406 607.78C465.476 609.357 466.771 610.451 468.29 611.064C469.809 611.676 471.478 611.792 473.297 611.41C475.116 611.029 476.621 610.248 477.813 609.067C479.005 607.886 479.813 606.35 480.237 604.46C480.674 602.567 480.661 600.357 480.2 597.83Z" fill="#027DCF"/>
<path d="M521.656 565.153L533.878 599.401L527.669 601.754L505.183 585.805L504.933 585.9L512.626 607.455L505.437 610.18L493.214 575.932L499.524 573.541L521.888 589.517L522.187 589.404L514.5 567.865L521.656 565.153Z" fill="#027DCF"/>
<path d="M577.47 550.554L539.341 570.332" stroke="#027DCF" stroke-width="8"/>
<path d="M588.289 568.074L550.206 588.851" stroke="#027DCF" stroke-width="8"/>
</svg>
